# xmcd
#
# Track frame offsets:
#	183
#	15813
#	29620
#	45783
#	63658
#	80178
#	93583
#	108518
#	123260
#	139660
#	153795
#	169768
#	185870
#
# Disc length: 2696 seconds
#
# Revision: 0
# Processed by: cddbd v1.5.2PL0 Copyright (c) Steve Scherf et al.
# Submitted via: EasyCDDAExtractor 5.0.5.1
#
DISCID=a50a860d
DTITLE=Corry Konings - Voor Jou Alleen
DYEAR=1988
DGENRE=Netherlands
TTITLE0=Amore
TTITLE1='N Zoen Van Jou (Le Vrai Soleil)
TTITLE2=Iedere Dag
TTITLE3=Het Is Vreemd Zonder Jou
TTITLE4=Ik Verloor M'n Beste Vriend
TTITLE5=Aan Het Lago Maggiore
TTITLE6=Tranen Zal Ik Nooit Meer Om Je Laten
TTITLE7=Arrivederci, Ciao Amor
TTITLE8=Wie Heeft Jou Zo Ver Gebracht
TTITLE9=Alleen Jij
TTITLE10=Jij Nam Mij Bij De Hand (Amore, Amore)
TTITLE11=Eenzaam Zonder Jou (Einsam Ohne Dich)
TTITLE12='N Zomerdag In Nederland
EXTD=
EXTT0=
EXTT1=
EXTT2=
EXTT3=
EXTT4=
EXTT5=
EXTT6=
EXTT7=
EXTT8=
EXTT9=
EXTT10=
EXTT11=
EXTT12=
PLAYORDER=
